PathFileType  4	(X/Y/Z) C:\Inversekin\DARPA\DARPA11\Files_W_HJCs\
DataRate	CameraRate	NumFrames	NumMarkers	Units	OrigDataRate	OrigDataStartFrame	OrigNumFrames
  100.0		  100.0		    6		     41		 mm	  100.0	      1	    153
Frame#	Time	R.Shoulder			L.Shoulder			R.Clavicle			L.Clavicle			R.Biceps			R.Elbow			R.Forearm			R.Wrist			L.Biceps			L.Elbow			L.Forearm			L.Wrist			R.ASIS			L.ASIS			R.PSIS			S2			L.PSIS			R.TH1			R.TH2			R.TH3			R.Knee			R.SH1			R.SH2			R.SH3			R.SH4			R.Ankle			R.Heel			R.MT5			R.Toe			L.TH1			L.TH2			L.TH3			L.TH4			L.Knee			L.SH1			L.SH2			L.SH3			L.Ankle			L.Heel			L.MT5			L.Toe			
		X1	Y1	Z1	X2	Y2	Z2	X3	Y3	Z3	X4	Y4	Z4	X5	Y5	Z5	X6	Y6	Z6	X7	Y7	Z7	X8	Y8	Z8	X9	Y9	Z9	X10	Y10	Z10	X11	Y11	Z11	X12	Y12	Z12	X13	Y13	Z13	X14	Y14	Z14	X15	Y15	Z15	X16	Y16	Z16	X17	Y17	Z17	X18	Y18	Z18	X19	Y19	Z19	X20	Y20	Z20	X21	Y21	Z21	X22	Y22	Z22	X23	Y23	Z23	X24	Y24	Z24	X25	Y25	Z25	X26	Y26	Z26	X27	Y27	Z27	X28	Y28	Z28	X29	Y29	Z29	X30	Y30	Z30	X31	Y31	Z31	X32	Y32	Z32	X33	Y33	Z33	X34	Y34	Z34	X35	Y35	Z35	X36	Y36	Z36	X37	Y37	Z37	X38	Y38	Z38	X39	Y39	Z39	X40	Y40	Z40	X41	Y41	Z41	

1	0.00000	410.290	1568.444	-313.711	677.235	1566.992	-312.072	511.300	1506.730	-210.678	566.419	1507.222	-208.869	204.375	1577.472	-337.420	118.317	1598.556	-393.865	120.487	1630.584	-246.314	112.889	1645.468	-128.469	859.603	1535.388	-339.651	980.145	1531.192	-357.947	993.911	1593.325	-228.426	995.022	1625.904	-120.593	403.850	1024.948	-171.439	659.441	1014.122	-186.594	475.876	1032.827	-386.420	519.053	1011.183	-402.091	567.477	1030.511	-391.959	310.946	797.139	-212.869	307.527	790.021	-321.690	320.327	661.429	-323.206	322.918	529.438	-278.670	305.736	436.254	-267.630	287.522	325.482	-274.515	303.092	437.240	-351.883	290.772	317.895	-359.092	293.905	113.279	-314.577	337.297	36.896	-391.181	252.438	34.344	-201.146	351.110	56.806	-91.925	705.658	795.907	-176.641	697.649	664.491	-187.677	750.172	811.370	-272.545	732.688	678.611	-300.292	708.922	532.426	-296.475	714.757	426.062	-273.989	737.094	445.013	-366.504	745.838	329.430	-380.901	753.124	115.437	-331.809	707.075	35.728	-416.671	801.501	39.695	-231.025	712.607	58.704	-121.071
2	0.01000	410.180	1568.395	-313.297	676.957	1567.097	-311.872	511.194	1506.922	-210.394	566.363	1507.300	-208.547	204.336	1577.477	-336.913	118.259	1598.479	-393.501	120.568	1630.774	-245.939	112.679	1645.972	-128.193	859.509	1535.398	-339.333	979.934	1531.266	-357.359	993.850	1593.760	-228.062	994.795	1626.891	-120.277	404.189	1024.742	-171.005	659.717	1014.219	-186.487	475.667	1033.013	-386.109	518.774	1011.297	-401.842	567.245	1030.627	-391.816	311.179	797.072	-212.614	307.569	790.047	-321.422	320.364	661.450	-323.089	322.970	529.466	-278.648	305.826	436.347	-267.659	287.571	325.564	-274.532	303.148	437.291	-351.917	290.904	317.889	-359.126	293.945	113.313	-314.564	337.299	36.924	-391.177	252.418	34.354	-201.144	351.053	56.875	-91.921	705.750	795.886	-176.702	697.792	664.528	-187.790	750.199	811.407	-272.652	732.752	678.741	-300.405	708.911	532.504	-296.532	714.573	426.190	-274.076	737.040	445.103	-366.563	745.783	329.544	-380.959	753.093	115.493	-331.840	707.026	35.784	-416.671	801.525	39.741	-231.007	712.595	58.751	-121.077
3	0.02000	410.096	1568.378	-312.903	676.829	1567.206	-311.700	510.958	1507.088	-210.086	566.423	1507.405	-208.253	204.290	1577.176	-336.503	118.208	1598.293	-393.072	120.297	1630.802	-245.490	112.718	1646.166	-127.791	859.362	1535.445	-339.040	979.752	1531.381	-356.795	993.721	1594.276	-227.766	994.892	1627.600	-120.040	404.490	1024.603	-170.601	659.966	1014.233	-186.431	475.578	1033.145	-385.785	518.449	1011.411	-401.620	567.038	1030.689	-391.696	311.256	797.136	-212.369	307.748	790.037	-321.077	320.328	661.512	-322.887	323.010	529.461	-278.628	305.867	436.332	-267.672	287.602	325.578	-274.538	303.185	437.299	-351.930	290.948	317.884	-359.125	293.916	113.322	-314.566	337.268	36.972	-391.172	252.399	34.310	-201.132	351.009	56.959	-91.907	705.858	795.897	-176.823	698.004	664.518	-187.939	750.260	811.507	-272.803	732.757	678.841	-300.554	708.838	532.472	-296.675	714.764	426.205	-274.150	736.976	445.279	-366.619	745.592	329.533	-381.048	753.037	115.578	-331.870	706.931	35.779	-416.688	801.427	39.831	-231.009	712.611	58.880	-121.070
4	0.03000	410.014	1568.362	-312.514	676.707	1567.324	-311.461	510.840	1507.260	-209.808	566.530	1507.587	-207.924	204.226	1577.082	-336.122	118.115	1597.946	-392.541	120.027	1630.541	-244.981	112.552	1646.149	-127.372	859.207	1535.496	-338.584	979.896	1531.398	-356.242	993.704	1594.676	-227.342	994.807	1628.255	-119.698	404.642	1024.464	-170.167	660.156	1014.269	-186.323	475.258	1033.291	-385.480	518.212	1011.439	-401.449	566.650	1030.791	-391.520	311.318	797.048	-212.104	307.899	789.942	-320.810	320.416	661.541	-322.644	323.026	529.406	-278.604	305.877	436.317	-267.678	287.611	325.557	-274.551	303.205	437.255	-351.937	290.961	317.852	-359.130	293.834	113.262	-314.558	337.231	37.006	-391.151	252.374	34.263	-201.133	350.874	56.975	-91.915	706.007	795.872	-176.894	698.225	664.489	-188.054	750.271	811.538	-273.002	733.072	679.012	-300.802	709.107	532.674	-296.878	714.874	426.367	-274.148	736.927	445.343	-366.724	745.529	329.581	-381.144	752.994	115.640	-331.900	706.822	35.742	-416.703	801.431	39.957	-230.978	712.509	58.895	-121.065
5	0.04000	409.873	1568.227	-312.222	676.681	1567.316	-311.237	510.764	1507.239	-209.572	566.765	1507.758	-207.609	204.884	1577.369	-336.459	117.755	1597.336	-392.014	119.867	1630.080	-244.613	112.356	1645.903	-126.918	859.238	1535.486	-338.091	980.047	1531.499	-355.653	993.822	1595.007	-226.717	995.053	1629.032	-119.263	404.907	1024.366	-169.798	660.319	1014.215	-186.340	475.168	1033.387	-385.207	518.141	1011.525	-401.228	566.554	1030.882	-391.343	311.562	796.872	-211.748	307.601	790.069	-320.436	320.407	661.450	-322.449	323.085	529.304	-278.567	305.958	436.313	-267.639	287.600	325.467	-274.539	303.293	437.181	-351.894	290.953	317.829	-359.084	293.813	113.180	-314.568	337.094	36.953	-391.162	252.368	34.180	-201.127	350.755	56.897	-91.936	706.416	795.829	-177.077	698.309	664.409	-188.235	750.859	811.893	-273.301	733.269	679.119	-300.981	709.108	532.658	-297.044	714.841	426.405	-274.329	736.890	445.325	-366.808	745.466	329.669	-381.249	752.972	115.647	-331.914	706.637	35.729	-416.709	801.435	39.939	-230.993	712.397	58.853	-121.087
6	0.05000	409.722	1568.108	-311.897	676.660	1567.269	-311.011	511.029	1507.272	-209.255	566.739	1507.729	-207.268	204.764	1576.955	-336.075	117.409	1596.739	-391.573	120.023	1629.439	-244.129	112.428	1645.497	-126.550	859.263	1535.504	-337.660	979.799	1531.540	-354.984	993.730	1595.288	-226.085	995.228	1629.473	-118.728	405.175	1024.080	-169.261	660.596	1014.141	-186.272	474.931	1033.412	-384.923	517.908	1011.526	-401.079	566.320	1030.998	-391.130	311.915	796.619	-211.407	307.626	790.080	-320.125	320.296	661.447	-322.270	323.116	529.175	-278.487	306.118	436.174	-267.670	287.589	325.438	-274.534	303.277	437.088	-351.857	290.907	317.773	-359.034	293.867	113.033	-314.558	337.057	36.930	-391.155	252.357	34.111	-201.118	350.679	56.818	-91.922	706.665	795.816	-177.238	698.943	664.491	-188.424	750.997	811.906	-273.551	733.271	679.364	-301.166	708.971	532.529	-297.295	714.863	426.389	-274.443	736.848	445.358	-366.934	745.445	329.619	-381.368	752.943	115.682	-331.943	706.549	35.582	-416.719	801.429	40.007	-230.983	712.344	58.776	-121.089
